inDegrees=yes
name=ik_lifting_orientations
DataType=double
version=3
OpenSimVersion=4.5-2024-01-10-34fd6af
endheader
time	pelvis_tilt	pelvis_list	pelvis_rotation	pelvis_tx	pelvis_ty	pelvis_tz	hip_flexion_r	hip_adduction_r	hip_rotation_r	knee_angle_r	knee_angle_r_beta	ankle_angle_r	subtalar_angle_r	mtp_angle_r	hip_flexion_l	hip_adduction_l	hip_rotation_l	knee_angle_l	knee_angle_l_beta	ankle_angle_l	subtalar_angle_l	mtp_angle_l	lumbar_extension	lumbar_bending	lumbar_rotation	arm_flex_r	arm_add_r	arm_rot_r	elbow_flex_r	pro_sup_r	wrist_flex_r	wrist_dev_r	arm_flex_l	arm_add_l	arm_rot_l	elbow_flex_l	pro_sup_l	wrist_flex_l	wrist_dev_l
0.02	0.02642390034757214	0.007571979311641875	2.433108056973785	0	0.9399999999999999	0	40.95963326238672	-11.66572400295582	0	59.88077429008516	1.045116670005556	-5.740882175508792	0	0	40.95963326238672	-11.66572400295582	0	59.88077429008516	1.045116670005556	-5.740882175508792	0	0	-0.05713172315307598	-0.01430850866157833	-0.00166323508105171	-0.2571567971699419	-0.05888656103670156	-0.004872377888922622	0.6006716104077795	45.46015095615528	0	0	0	-9.849801109534011	0	75.3613037696399	45.46015095615528	0	0
0.03	-0.000770925675219669	0.00202172652769941	2.432153350140136	0	0.9399999999999999	0	40.97946540987093	-11.63952959265712	0	59.88123590281463	1.045124726667555	-5.726142133375727	0	0	40.97946540987093	-11.63952959265712	0	59.88123590281463	1.045124726667555	-5.726142133375727	0	0	0.006124366145545755	-0.0001907875918405431	0.003527713048797338	-0.2884144952556955	-0.06564759364670836	-0.01055525988656536	0.5831387906824295	45.45430468551739	0	0	0	-9.863020592294571	0	75.35953559522027	45.45430468551739	0	0
0.04	0.0007807160320661118	0.0001191985657164833	2.434232611669169	0	0.9399999999999999	0	41.07075862920071	-11.52385441252354	0	59.8833646425783	1.045161880185349	-5.662377353213708	0	0	41.07075862920071	-11.52385441252354	0	59.8833646425783	1.045161880185349	-5.662377353213708	0	0	-0.002250346628310289	-0.0003082197455106821	-0.0003198344349088168	-0.2363796864333981	-0.05581835684233234	-0.005669968938650765	0.4880647010199468	45.42812199290268	0	0	0	-9.924073757597368	0	75.35139540607591	45.42812199290268	0	0
0.05	-0.0007603403342414948	-0.001658527682767458	2.422971591984016	0	0.9399999999999999	0	41.27061021872863	-11.3082088939627	0	59.88810045188808	1.045244535650551	-5.550220343344835	0	0	41.27061021872863	-11.3082088939627	0	59.88810045188808	1.045244535650551	-5.550220343344835	0	0	0.00183632152031284	0.0005127094147228029	0.001332845308296225	-0.2389680627139589	-0.05882264615706384	0.009119050244165585	0.490036870560653	45.3771164391442	0	0	0	-10.06264067457035	0	75.33356610035044	45.3771164391442	0	0
0.06	0.003785343474169078	0.0007669343579976098	2.434197620081559	0	0.9399999999999999	0	41.39177050831417	-11.18153576412885	0	59.89098330062676	1.045294850852878	-5.484841869053253	0	0	41.39177050831417	-11.18153576412885	0	59.89098330062676	1.045294850852878	-5.484841869053253	0	0	-0.007402977730638212	-0.001187525886558072	0.000100051796952535	-0.2341611925584392	-0.05489680132936898	-0.00617357775045608	0.4892785488495401	45.34694506352375	0	0	0	-10.14743322461904	0	75.32275593057466	45.34694506352375	0	0
0.07000000000000001	0.01248350520109476	0.003882140710638249	2.431694085392507	0	0.9399999999999999	0	41.6722436242575	-10.91570581351209	0	59.89772386844469	1.045412495954755	-5.35244626028107	0	0	41.6722436242575	-10.91570581351209	0	59.89772386844469	1.045412495954755	-5.35244626028107	0	0	-0.02528977566344436	-0.005550940061064828	-0.00215760006587046	-0.2477756805965044	-0.05929877357553223	-0.00617468392942679	0.5381781647222971	45.28191981562301	0	0	0	-10.34812963419495	0	75.29772500427431	45.28191981562301	0	0
0.08	0.01220466139205628	-0.001711117512682409	2.442959307280271	0	0.9399999999999999	0	41.73007337267853	-10.8672662407536	0	59.89913164282234	1.04543706625277	-5.329378834425206	0	0	41.73007337267853	-10.8672662407536	0	59.89913164282234	1.04543706625277	-5.329378834425206	0	0	-0.004682125179431475	-0.0003787751307814675	0.001309205144539063	-0.4434703439856061	-0.09943541822861701	-0.02329214961095219	0.8913640660063169	45.26966746038622	0	0	0	-10.39068400872127	0	75.29256245773297	45.26966746038622	0	0
0.09	-0.01424545924451952	-0.008175493722295077	2.439673912007482	0	0.9399999999999999	0	41.8018076691767	-10.80785619556329	0	59.90088106725635	1.045467599469158	-5.30124050121713	0	0	41.8018076691767	-10.80785619556329	0	59.90088106725635	1.045467599469158	-5.30124050121713	0	0	0.0288282358381979	0.004022642192485958	0.0006497379435293594	-0.3014166256272964	-0.06586625237117744	-0.01133033308502879	0.5885233118613428	45.25458681545374	0	0	0	-10.44357050591273	0	75.28615855770178	45.25458681545374	0	0
0.1	-0.0006779414911117998	0.0009770112175814364	2.433676914538926	0	0.9399999999999999	0	41.92558770317221	-10.71088406932286	0	59.90391285697343	1.045520514181949	-5.256277587499066	0	0	41.92558770317221	-10.71088406932286	0	59.90391285697343	1.045520514181949	-5.256277587499066	0	0	0.001011376769312967	-0.001338631076007001	0.00102467925825132	-0.2375560818448585	-0.05415978042577075	-0.006132204946026746	0.4877055768288808	45.22958760407649	0	0	0	-10.5359202248306	0	75.27510708916716	45.22958760407649	0	0
